HIERARCHY
ROOT Hips
{
	OFFSET -14.64140 90.27770 -84.91600
	CHANNELS 6 Xposition Yposition Zposition Zrotation Xrotation Yrotation
	JOINT Spine
	{
		OFFSET 0.00000 13.20850 -1.60436
		CHANNELS 3 Zrotation Xrotation Yrotation
		JOINT Spine1
		{
			OFFSET 0.00000 8.61716 0.00000
			CHANNELS 3 Zrotation Xrotation Yrotation
			JOINT Spine2
			{
				OFFSET 0.00000 8.61717 0.00000
				CHANNELS 3 Zrotation Xrotation Yrotation
				JOINT Spine3
				{
					OFFSET 0.00000 8.61717 0.00000
					CHANNELS 3 Zrotation Xrotation Yrotation
					JOINT Neck
					{
						OFFSET 0.00000 11.07920 1.10792
						CHANNELS 3 Zrotation Xrotation Yrotation
						JOINT Neck1
						{
							OFFSET 0.00000 7.08032 0.00000
							CHANNELS 3 Zrotation Xrotation Yrotation
							JOINT Head
							{
								OFFSET 0.00000 7.08031 0.00000
								CHANNELS 3 Zrotation Xrotation Yrotation
								End site
								{
									OFFSET 0.00000 0.00000 0.00000
								}
							}
						}
					}
					JOINT RightShoulder
					{
						OFFSET -0.01000 7.91373 5.19711
						CHANNELS 3 Zrotation Xrotation Yrotation
						JOINT RightArm
						{
							OFFSET -18.41580 0.00000 0.00000
							CHANNELS 3 Zrotation Xrotation Yrotation
							JOINT RightForeArm
							{
								OFFSET -29.11090 0.00000 0.00000
								CHANNELS 3 Zrotation Xrotation Yrotation
								JOINT RightHand
								{
									OFFSET -24.65040 0.00000 0.00000
									CHANNELS 3 Zrotation Xrotation Yrotation
									JOINT RightHandThumb1
									{
										OFFSET -5.35114 -0.85590 3.97906
										CHANNELS 3 Zrotation Xrotation Yrotation
										JOINT RightHandThumb2
										{
											OFFSET -4.52789 0.00000 0.00000
											CHANNELS 3 Zrotation Xrotation Yrotation
											JOINT RightHandThumb3
											{
												OFFSET -2.46976 0.00000 0.00000
												CHANNELS 3 Zrotation Xrotation Yrotation
												End site
												{
													OFFSET 0.00000 0.00000 0.00000
												}
											}
										}
									}
									JOINT RightHandIndex1
									{
										OFFSET -14.26970 0.00000 2.88139
										CHANNELS 3 Zrotation Xrotation Yrotation
										JOINT RightHandIndex2
										{
											OFFSET -5.48836 0.00000 0.00000
											CHANNELS 3 Zrotation Xrotation Yrotation
											JOINT RightHandIndex3
											{
												OFFSET -3.01859 0.00000 0.00000
												CHANNELS 3 Zrotation Xrotation Yrotation
												End site
												{
													OFFSET 0.00000 0.00000 0.00000
												}
											}
										}
									}
									JOINT RightHandMiddle1
									{
										OFFSET -14.26970 0.00000 -0.09147
										CHANNELS 3 Zrotation Xrotation Yrotation
										JOINT RightHandMiddle2
										{
											OFFSET -6.17441 0.00000 0.00000
											CHANNELS 3 Zrotation Xrotation Yrotation
											JOINT RightHandMiddle3
											{
												OFFSET -3.56743 0.00000 0.00000
												CHANNELS 3 Zrotation Xrotation Yrotation
												End site
												{
													OFFSET 0.00000 0.00000 0.00000
												}
											}
										}
									}
									JOINT RightHandRing1
									{
										OFFSET -12.69180 0.00000 -3.06433
										CHANNELS 3 Zrotation Xrotation Yrotation
										JOINT RightHandRing2
										{
											OFFSET -5.62556 0.00000 0.00000
											CHANNELS 3 Zrotation Xrotation Yrotation
											JOINT RightHandRing3
											{
												OFFSET -3.56744 0.00000 0.00000
												CHANNELS 3 Zrotation Xrotation Yrotation
												End site
												{
													OFFSET 0.00000 0.00000 0.00000
												}
											}
										}
									}
									JOINT RightHandPinky1
									{
										OFFSET -11.11390 0.00000 -6.03719
										CHANNELS 3 Zrotation Xrotation Yrotation
										JOINT RightHandPinky2
										{
											OFFSET -4.52789 0.00000 0.00000
											CHANNELS 3 Zrotation Xrotation Yrotation
											JOINT RightHandPinky3
											{
												OFFSET -2.46976 0.00000 0.00000
												CHANNELS 3 Zrotation Xrotation Yrotation
												End site
												{
													OFFSET 0.00000 0.00000 0.00000
												}
											}
										}
									}
								}
							}
						}
					}
					JOINT LeftShoulder
					{
						OFFSET 0.01000 7.91373 5.19711
						CHANNELS 3 Zrotation Xrotation Yrotation
						JOINT LeftArm
						{
							OFFSET 18.41580 0.00000 0.00000
							CHANNELS 3 Zrotation Xrotation Yrotation
							JOINT LeftForeArm
							{
								OFFSET 29.11090 0.00000 0.00000
								CHANNELS 3 Zrotation Xrotation Yrotation
								JOINT LeftHand
								{
									OFFSET 24.65040 0.00000 0.00000
									CHANNELS 3 Zrotation Xrotation Yrotation
									JOINT LeftHandThumb1
									{
										OFFSET 5.35114 -0.85590 3.97906
										CHANNELS 3 Zrotation Xrotation Yrotation
										JOINT LeftHandThumb2
										{
											OFFSET 4.52789 0.00000 0.00000
											CHANNELS 3 Zrotation Xrotation Yrotation
											JOINT LeftHandThumb3
											{
												OFFSET 2.46977 0.00000 0.00000
												CHANNELS 3 Zrotation Xrotation Yrotation
												End site
												{
													OFFSET 0.00000 0.00000 0.00000
												}
											}
										}
									}
									JOINT LeftHandIndex1
									{
										OFFSET 14.26970 0.00000 2.88139
										CHANNELS 3 Zrotation Xrotation Yrotation
										JOINT LeftHandIndex2
										{
											OFFSET 5.48836 0.00000 0.00000
											CHANNELS 3 Zrotation Xrotation Yrotation
											JOINT LeftHandIndex3
											{
												OFFSET 3.01859 0.00000 0.00000
												CHANNELS 3 Zrotation Xrotation Yrotation
												End site
												{
													OFFSET 0.00000 0.00000 0.00000
												}
											}
										}
									}
									JOINT LeftHandMiddle1
									{
										OFFSET 14.26970 0.00000 -0.09147
										CHANNELS 3 Zrotation Xrotation Yrotation
										JOINT LeftHandMiddle2
										{
											OFFSET 6.17440 0.00000 0.00000
											CHANNELS 3 Zrotation Xrotation Yrotation
											JOINT LeftHandMiddle3
											{
												OFFSET 3.56744 0.00000 0.00000
												CHANNELS 3 Zrotation Xrotation Yrotation
												End site
												{
													OFFSET 0.00000 0.00000 0.00000
												}
											}
										}
									}
									JOINT LeftHandRing1
									{
										OFFSET 12.69180 0.00000 -3.06433
										CHANNELS 3 Zrotation Xrotation Yrotation
										JOINT LeftHandRing2
										{
											OFFSET 5.62556 0.00000 0.00000
											CHANNELS 3 Zrotation Xrotation Yrotation
											JOINT LeftHandRing3
											{
												OFFSET 3.56744 0.00000 0.00000
												CHANNELS 3 Zrotation Xrotation Yrotation
												End site
												{
													OFFSET 0.00000 0.00000 0.00000
												}
											}
										}
									}
									JOINT LeftHandPinky1
									{
										OFFSET 11.11390 0.00000 -6.03719
										CHANNELS 3 Zrotation Xrotation Yrotation
										JOINT LeftHandPinky2
										{
											OFFSET 4.52789 0.00000 0.00000
											CHANNELS 3 Zrotation Xrotation Yrotation
											JOINT LeftHandPinky3
											{
												OFFSET 2.46976 0.00000 0.00000
												CHANNELS 3 Zrotation Xrotation Yrotation
												End site
												{
													OFFSET 0.00000 0.00000 0.00000
												}
											}
										}
									}
								}
							}
						}
					}
					JOINT pCube4
					{
						OFFSET 0.00000 10.91090 1.10792
						CHANNELS 3 Zrotation Xrotation Yrotation
						End site
						{
							OFFSET 0.00000 0.00000 0.00000
						}
					}
				}
			}
		}
	}
	JOINT RightUpLeg
	{
		OFFSET -9.98441 0.00000 0.00000
		CHANNELS 3 Zrotation Xrotation Yrotation
		JOINT RightLeg
		{
			OFFSET 0.00000 -42.11790 0.00000
			CHANNELS 3 Zrotation Xrotation Yrotation
			JOINT RightFoot
			{
				OFFSET 0.00000 -45.00020 -0.00001
				CHANNELS 3 Zrotation Xrotation Yrotation
				JOINT RightForeFoot
				{
					OFFSET 0.00000 -3.74820 0.00000
					CHANNELS 3 Zrotation Xrotation Yrotation
					JOINT RightToeBase
					{
						OFFSET 0.00000 0.06325 14.43120
						CHANNELS 3 Zrotation Xrotation Yrotation
						End site
						{
							OFFSET 0.00000 0.00000 0.00000
						}
					}
				}
			}
		}
	}
	JOINT LeftUpLeg
	{
		OFFSET 9.98441 0.00000 0.00000
		CHANNELS 3 Zrotation Xrotation Yrotation
		JOINT LeftLeg
		{
			OFFSET 0.00000 -42.11800 0.00000
			CHANNELS 3 Zrotation Xrotation Yrotation
			JOINT LeftFoot
			{
				OFFSET 0.00000 -45.00070 0.00000
				CHANNELS 3 Zrotation Xrotation Yrotation
				JOINT LeftForeFoot
				{
					OFFSET 0.00000 -3.74824 0.00000
					CHANNELS 3 Zrotation Xrotation Yrotation
					JOINT LeftToeBase
					{
						OFFSET 0.00000 0.06325 14.43110
						CHANNELS 3 Zrotation Xrotation Yrotation
						End site
						{
							OFFSET 0.00000 0.00000 0.00000
						}
					}
				}
			}
		}
	}
}
MOTION
Frames: 4
Frame Time: 0.050000
-0.019511321841525094 -0.03291594176213546 -0.004282291899904433 -0.014632773943386235 -0.030831949041109315 -0.009099999756627532 -3.596014515003712 4.029257969286294 -0.8284630954194083 -0.7578901518317804 4.548635922846374 0.33215224438113716 -0.7508852064932189 -0.14787576865714167 -1.5916833571261166 1.4418640523628108 0.4645858494139952 -0.8934277660074306 -0.9337816728117155 13.385350041108627 -1.0847830869022301 -0.2655823126042631 -0.9779963994624631 -3.3207957248624003 0.1476391661607115 -15.5811702033143 -0.3050617167352024 3.4145596998332035 -0.9111148512284424 -14.706748422148296 61.89182644641704 14.964236759051122 14.141064230683323 34.54287911297532 4.656142636650969 80.22063422740445 21.040825701770277 0.0661055132163815 -7.599654453492462 4.493282942418827 -0.07903803248406399 -1.61283865837318 -0.029847310176925233 -0.0064521013624397735 -56.26669800810975 0.0058053661677199145 -0.017144740166945956 -56.22587665852741 -38.76756631372927 -0.024933667088807267 0.007705321132206445 0.016802212174350156 -0.026023502324524588 0.043672177487331335 0.02203632160732155 0.02225072541730234 0.006530551444160893 -36.68724885912825 0.03398530197491413 -0.005973958871197927 -0.029798129050123228 0.023420396927610512 -0.016812947825179232 0.0092817292964546 -0.004127647736119016 0.004834320881876064 -19.718888129257557 0.011420302993693182 0.014298188770143038 -0.013110720926718417 0.008923048528996357 0.04561750786948181 0.0253870553991652 0.01890788367621153 0.02509571975060199 24.066928020624943 -0.040691872877067874 -0.046932209087478194 28.866724466022767 -0.009058735898292125 -0.0022947492594181072 28.835888486246915 -0.027186637697659107 0.03412257583636118 1.9482529627795908 0.6896625581688275 13.36861585254227 -53.76139750561737 20.60980515666979 -39.52448589591195 9.383809581985625 -0.45372588696993066 -83.80490551959834 -18.40193422916667 10.585310970118893 -8.014114228728598 -0.4572056268543369 0.05054719197370691 -8.128416223611284 -0.04629707502807411 0.026289027545288467 44.58556917443996 -0.023170177192853757 0.018370193598070017 44.52249016618127 12.496375014393287 0.007867455022979555 -0.0027235663871394175 -0.04452766027609623 -0.0305499797379866 0.03517294807778558 -0.0036451281403249 0.01872108796359347 0.015586663317472514 11.106001102968953 0.03983681668098791 0.04777208070570189 -0.044659803896633356 0.04907489126843461 0.03852666398522463 -0.018857098137270815 -0.03194340640715854 -0.01846425884087603 4.770767107201481 0.013005740925504864 -0.029403910751426628 -0.03524937574585385 0.04250648217483663 0.004918937208812811 0.0295140132303038 0.033304115577495526 0.020255077321736918 -5.6456897835340865 -0.024358953268846514 0.024905445071386617 -6.7020637767544455 -0.02819140738519311 0.04873743150078334 -6.685180039249216 0.012080900639079043 0.0003471456932907057 -0.033495313609531265 -0.0409961642415309 -0.03133060955200954 8.060599909572199 3.5258258565073097 -19.266696380324397 0.01914303129026114 10.382368704844671 -0.013221181075057077 -5.62619467865929 -15.652936279051161 3.210398419026953 0.012664820148473628 0.008343842451678959 -8.786712120036282e-05 0.01172433467014454 4.718000077925427 -0.00611013708313863 12.423173464073177 -8.258152379513975 6.911093814934264 -0.045807781237637915 46.337381057763686 0.0019388137608464767 -4.305010452807342 -14.781908358442214 -3.7893531531425526 -0.01341147132270788 -0.02974265368837026 -0.009144006225304748 0.0206232096485257 -10.775249180647453 -0.049306246551299025 
-0.045443417114256236 0.0041047452222126345 0.028757693378331325 -0.00025573086763147705 0.002922783128948945 0.0027761909585055423 -3.4422870079034897 4.014893870949628 -0.7732149418253538 -0.7787163506570496 4.537573762658426 0.37688958118561544 -0.7707339881063915 -0.23987509783683467 -1.5558733817498434 1.4030370681073985 0.4002286971829016 -0.9512093488222123 -0.9788161804384762 13.366396340957087 -1.1765147671939875 -0.194752342299763 -0.9804962819724258 -3.512549390590813 0.2145779957164485 -15.665301366702185 -0.22772971981441587 3.43623325330693 -0.9399951165573123 -14.71626389750233 61.4379967103157 14.854024197030459 14.066102677291491 32.48348576192065 4.862095263716926 79.60368869288789 22.18768097371006 0.053378837628714315 -7.687816294285214 4.515590787276686 -0.14926876470017772 -1.6155866000714085 -0.047244208266562476 -0.04377076374685468 -56.256825883183716 0.016261631096505604 -0.010968776814106396 -56.2185544137021 -38.79172963010943 -0.03268623614506129 -0.0026717114851585824 -0.03790142267555002 0.014782565751994737 -0.03330567350077495 0.028460974826979672 0.012756342606515477 0.011849644371543452 -36.74063347846445 -0.0057179912649056525 -0.0016737952978240788 0.017513084574139737 -0.0024503659400460878 -0.007798374378006173 -0.0155815995414784 -0.0290453120123625 0.006807126598482042 -19.78637363328435 0.019352386402910572 0.04099916354272249 -0.04218462792157296 0.010526338388799647 0.025404015140505488 -0.009646989687232658 -0.005076867359017369 -0.03287137498486988 24.05476187420612 0.028785294562583077 0.008300675941460316 28.892055468892313 -0.04586532057451492 0.005135034766565305 28.896293322607868 0.022353537734646482 -0.004803823002247311 2.1237877830290413 0.7293177692934002 13.507083830637894 -53.309936767996994 18.38180612278552 -40.04349562153912 11.185195456762372 -1.411854051862298 -83.41614902116436 -19.400486798889318 11.054460754445168 -8.528765826814734 -0.440769711038161 0.03961634942297278 -8.136075114480564 0.0057100684374563095 0.013114511971209896 44.57278683881538 -0.04453126303597741 0.003576131192525548 44.5816747339582 12.433596222687662 -0.01260439736278148 -0.025806661205675128 0.03660276722779679 -0.04579022667211422 0.011453520582697333 -0.00948474734397711 -0.012773016940271496 -0.013444728089735682 11.121637638643952 0.006616697648681394 -0.01839661260054173 0.020127406343144288 -0.00139297458157607 0.03806581923169244 0.026311695491775422 -0.026561221885828153 -0.033386113661639426 4.7639326304496805 -0.0259248399320905 -0.0223237715456748 -0.04674138361147096 0.014893944616453686 -0.04309257670609881 -0.00748487051795682 0.043051016715552476 0.02232720806430018 -5.638218113747029 -0.04100408943287015 0.03711122769529964 -6.732712467542725 0.0334672242717673 -0.033007819883331097 -6.726312354513141 -0.02322377658757343 -0.013408409286053491 0.015659005813173157 -0.010407273310332628 0.042290624949039624 8.025076805485607 3.477034293585599 -19.235157489681566 -0.016230262565336148 10.444156812303776 0.002909190893190923 -5.58103333473478 -15.635215229996028 3.2164990637012467 -0.025796813874291228 0.011383112864569703 -0.04017819811947947 -0.02916761734289199 4.662208704432768 -0.03620980033597183 12.465977832096163 -8.28384500684579 6.857183285036499 0.024698762032409692 46.342400639769934 -0.04367952955672802 -4.338869338007329 -14.749921511773831 -3.8307823608587883 0.014350232698440006 0.02928385799001571 0.04908238493969883 -0.02147743840810829 -10.755882802595792 -0.04280116239353257 
-0.030660927657749262 0.004154962882372705 0.021974430813161576 -0.0007733833054952003 0.0008588698665243102 -0.0037571615311535393 -3.3211681720091657 3.9124447180959554 -0.8744788913682089 -0.6923334244915627 4.476117452761824 0.301015838780105 -0.7425664091686217 -0.2649808643907505 -1.5162617396067843 1.3308466677061666 0.3372410180080979 -0.9324172524359583 -0.9894007172241127 13.32941640290819 -1.1794232475422752 -0.2187999489265024 -1.1321167751658179 -3.4963370251602237 0.1543167600620706 -15.81051265891079 -0.2717017688295837 3.533987040945479 -0.884169497122407 -14.693729689766002 60.97225025577711 14.848865518561697 14.008892404265126 30.776455276058016 5.757445668940508 79.11153048175267 23.261408121586605 0.0963817971467834 -7.727513686607224 4.552440621884958 -0.09572997095283674 -1.6162215798749575 -0.003459643562374587 -0.010458295086960587 -56.2212089390107 0.005896309285808887 -0.016805813339260043 -56.22963885945022 -38.818642460308865 0.01964859369665395 -0.015087663709226005 -0.03365698627649542 -0.02419713178211779 -0.0416826027975497 0.02995405879003933 0.03930070199015678 0.048182415385393224 -36.7123660693257 0.0261637936442176 -0.036111070096876155 -0.022367518297323443 0.0414623207641238 -0.049399828266979084 0.014094203973737228 -0.04815771138740475 -0.02683380280301859 -19.73007956974296 0.038387205800762325 -0.039635367607902657 0.035377211241507174 -0.019000809653006368 0.03994947890535609 0.020504116455307697 -0.0387758638774923 0.01881909748645165 24.064862055185234 0.016033574351504133 -0.035069775190834554 28.861164379010635 -0.03295611362132071 0.034117311389124855 28.884627748577543 -0.01546345800231918 0.02899957340395419 2.3062652036117792 0.7335048558068683 13.50389798722828 -53.144349782299365 16.401214552830613 -40.86014278040707 12.613301168354154 -2.050735802986945 -83.29224899733319 -20.325394182019657 11.757638111838036 -9.27617610624608 -0.46062478977900084 0.06909843048407954 -8.115851541206515 -0.015744999698084048 0.02427067952083915 44.57126026484344 0.0438160777323825 0.007168381349533046 44.584333737947674 12.458132275025443 0.009019474091691054 0.024178862395796235 -0.03864446984626798 -0.005744077748008663 0.015094832605306845 -0.02299493161869003 0.01581367336977237 -0.005483616899486085 11.105298876132492 -0.03733363221037846 -0.011747788474592928 -0.034218778307623564 -0.01770140871091641 0.021350255783725538 0.025559864280039958 0.004173347163990887 -0.017943042070778934 4.784052324068574 -0.04103946515565803 -0.029427600585218445 0.024602393917352448 -0.045752400993220185 0.0034811002276658367 0.013116554889377924 -0.01848104417088942 -0.03672926332695671 -5.623691394681413 0.025983376806739747 0.02972381294148037 -6.729754394604391 0.04633998715773117 0.00404767790155934 -6.729430019289976 0.0031571009120039675 0.03198862662250085 0.03740501004403636 0.02242269910638781 -0.04433825128946085 8.082574952074323 3.493043116938904 -19.17763678622612 -0.048477006150312626 10.365572403684158 0.027281434087396896 -5.580745976426771 -15.650302882047452 3.2084041460244994 0.014407721094493406 -0.007154085908420269 -0.04717639982980767 -0.013703083025016277 4.739875381700049 -0.015333221554861621 12.463377428475715 -8.23850917047838 6.9243897541964134 0.00047648745264607697 46.374981701793665 0.04977629065357626 -4.369712798697532 -14.733169830108675 -3.790506481821349 0.023089988837975542 0.008037937079277083 0.021858143876811693 0.04245279720462341 -10.732599541834531 0.02118114291288388 
0.04064379567595618 -0.025355757073349996 0.0056524689266278325 -0.01802840234305211 -0.007809203424459132 0.024571301122688807 -3.2679059242301136 3.824064161221085 -0.820758000475798 -0.6923835705792232 4.476923978464342 0.33584780832407296 -0.6985981495094805 -0.34572087261986684 -1.488111712479502 1.2833860309384773 0.15712770515766003 -0.8892752377739881 -1.0403755663768977 13.393164208695762 -1.1727796644574704 -0.17319314953847065 -1.1307490291406215 -3.396859243932004 0.1154975838291939 -15.946581340212603 -0.2726696219790787 3.5759449609029823 -0.9510056903982871 -14.698112831209253 60.59565374613775 14.70190242114025 13.910346624061177 29.21350035460752 7.028238639399838 78.78229090000077 24.312036641435295 0.08458730216566515 -7.610273657995329 4.532255840013226 -0.09915478896792221 -1.6334346265561681 -0.0018093530560170472 -0.004481935190794425 -56.23228392006158 0.0018108203698353463 -0.04503090193295248 -56.22784757242763 -38.79369529964754 -0.02988981408989564 0.011708169899157024 -0.037069665077717855 0.03858693821461821 0.03158653175762274 0.04105436971520644 0.04723477296757873 -0.0225744426350801 -36.701140221224094 0.005746379061611912 -0.006773403230084874 -0.03765956990060949 0.04359619139637035 -0.026684727998219474 -0.032108569386063275 -0.009749219858982557 0.005403622269933223 -19.742318952314957 -0.0013911728938267981 -0.03600314850279103 -0.028186948992918473 -0.007114711716684028 -0.03773403421039587 0.033947067960987946 -0.022837014546695858 0.03359276099614049 24.036355594869164 0.005943386617456546 0.028174803083262253 28.85929831528622 -0.016527000710450365 -0.013225242083257044 28.821912054408646 -0.024944932808695863 -0.04287617494631999 2.5702407456203313 0.8276687417423059 13.542005889716574 -53.10243969142142 14.471810801438973 -41.831567259107715 13.55495244477263 -2.4739776232336395 -83.10824743763234 -21.221328240382107 12.504879622647556 -10.042351043458348 -0.45259701201088953 0.0749851437070353 -8.135587615534947 -0.01666355877015925 0.023848388309020082 44.522890455760766 0.026726250557154475 0.006143248099245459 44.53764312366247 12.45323012269915 -0.04640626765688704 0.0016601728216695227 0.02040096097459229 0.047197135494332826 -0.030317986779457653 0.013882848049354447 -0.02642075022546709 0.03199745529958515 11.089925162145951 0.01580129436542664 0.009736798765223808 -0.014564842319956327 0.015803072868753407 -0.034914572004300454 0.04051386108474901 -0.030899543988104274 0.040731017547917636 4.770725177347387 0.03678396677463593 0.04569933492764332 0.01629968863808492 -0.022939842357419138 0.008199028006461488 0.025559396437569177 -0.007615694727856469 0.014383530575588839 -5.59852736134801 -0.004937595981936804 0.017621972753571524 -6.769804449107974 -0.009388135941765184 -0.004261731034996529 -6.737464524948318 -0.017816349954646184 0.0008126487685500784 0.004360452791650521 0.026111935371678902 0.016078961473383294 8.063760884586392 3.512704320048995 -19.227556364774667 -0.019972953844900273 10.385322272971482 0.05385806820328924 -5.6353964440058135 -15.663133085304315 3.2139751369459115 -0.00842324189300733 -0.04643767011745379 0.03381674051578174 -0.013371444607776586 4.712431082812688 0.0013879270272714507 12.489943781745863 -8.211207982774486 6.858425632031921 0.029715940536833206 46.38083274632337 -0.04638881039901064 -4.291885085854131 -14.698826271307132 -3.8353925416725345 -0.030239145678982778 0.04341704632385115 0.04811163558377813 0.027173468109019636 -10.728413551502218 -0.0011534069192922604 
